<svg width="30" height="35" fill="none" xmlns="http://www.w3.org/2000/svg"><path d="M3.467 0H5.27v1.559h1.65V0h1.803v4.718H6.92V3.14H5.27v1.58H3.468V0h-.001zm7.627 1.565H9.507V0h4.978v1.565h-1.588v3.153h-1.803V1.565zM15.275 0h1.88l1.157 1.658L19.467 0h1.88v4.718h-1.795V2.38l-1.24 1.678h-.032L17.038 2.38v2.337h-1.763V0zm6.969 0h1.805v3.16h2.533v1.56h-4.338V0z" fill="#fff"/><path fill-rule="evenodd" clip-rule="evenodd" d="M3.41 32.188L0 6.883h30l-3.412 25.302L14.983 35 3.41 32.19zm6.895-13.852l-.323-3.178h13.575l.316-3.103H6.107l.956 9.385h12.295l-.411 4.025-3.957.936h-.003l-3.95-.933-.254-2.475H7.22l.497 4.873 7.266 1.765 7.279-1.765.886-8.696.087-.832h-12.93v-.002z" fill="#fff"/></svg>