<svg width="30" height="41" fill="none" xmlns="http://www.w3.org/2000/svg"><path d="M7.503 6H11.8v1.75H9.3V9.5h2.5v1.75H7.503V6zm5.156 0h4.298v1.5h-2.5v.3h2.5v3.45h-4.298V9.675h2.5v-.3h-2.5V6z" fill="#fff"/><path d="M8.944 1.343C8.626.046 6.536-.37 4.562.353A9.857 9.857 0 001.2 2.333C.112 3.383-.061 4.313.016 4.669.266 6.015 2.058 6.887 2.79 7.54c-.212.109-1.801.94-2.177 1.782a1.206 1.206 0 00-.14.884c.069.302.25.564.506.73.45.112.923.077 1.353-.1a2.24 2.24 0 001.045-.89 2.57 2.57 0 00.24-2.227 2.801 2.801 0 011.09-.06c1.242.148 1.483.99 1.434 1.277a.854.854 0 01-.395.574c-.086.06-.115.08-.105.119.01.04.048.06.125 0a.963.963 0 00.472-.337 1.01 1.01 0 00.202-.554 1.84 1.84 0 00-.189-.676 1.794 1.794 0 00-.426-.55 1.708 1.708 0 00-1.375-.408c-.375-.01-.75.044-1.107.159l-.058-.06c-.8-.87-2.273-1.494-2.215-2.673 0-.425.163-1.554 2.831-2.97C6.087.443 7.841.75 8.14 1.433c.433.99-.963 2.792-3.207 3.049a1.66 1.66 0 01-1.435-.376c-.116-.139-.135-.139-.183-.119-.049.02 0 .158 0 .228.086.16.204.302.344.416.14.114.302.198.474.247a4.238 4.238 0 002.64-.198c1.411-.545 2.49-2.07 2.172-3.336zM3.088 7.936a1.91 1.91 0 010 1.089v.218c-.084.18-.195.347-.327.495a1.21 1.21 0 01-.546.431 1.174 1.174 0 01-.687.054c-.27-.149-.135-.812.347-1.327a4.82 4.82 0 011.252-.92l-.039-.04zM17.817 6h4.295v1.5h-2.5v.3h2.5v3.45h-4.295V9.675h2.5v-.3h-2.5V6z" fill="#fff"/><path fill-rule="evenodd" clip-rule="evenodd" d="M14.985 40.998L3.412 38.186 0 12.88h30l-3.41 25.305-11.605 2.814zm-8.24-16.663l.318 3.103h12.295l-.411 4.025-3.957.936h-.003l-3.95-.934-.254-2.474H7.222l.496 4.873 7.267 1.765 7.278-1.765.887-8.697.087-.832.64-6.284H6.107l.323 3.105h13.56l-.323 3.179H6.745z" fill="#fff"/></svg>