<svg width="30" height="35" fill="none" xmlns="http://www.w3.org/2000/svg"><path fill-rule="evenodd" clip-rule="evenodd" d="M30 9.375L15 0 0 9.375v16.25l2.322 1.45 4.746-2.056a3.52 3.52 0 001.572-1.364 3.897 3.897 0 00.59-2.072V8.85h2.309v12.734a6.5 6.5 0 01-.986 3.454 5.867 5.867 0 01-2.62 2.273l-3.091 1.34L15 35l15-9.373V9.375zm-16.154 4.417c0-1.31.486-2.568 1.352-3.495.866-.927 2.04-1.448 3.264-1.448h2.693c2.335 0 4.23 2.027 4.23 4.53v.413h-2.308v-.412c0-.27-.05-.539-.146-.788a2.075 2.075 0 00-.417-.668 1.917 1.917 0 00-.624-.447 1.811 1.811 0 00-.735-.156H18.46c-.611 0-1.198.26-1.631.724a2.564 2.564 0 00-.676 1.747c0 .656.243 1.285.676 1.748.433.464 1.02.724 1.632.724h2.307c1.224 0 2.398.521 3.264 1.448.865.927 1.352 2.184 1.352 3.496 0 1.31-.487 2.568-1.352 3.495-.866.927-2.04 1.448-3.264 1.448h-2.307c-1.224 0-2.398-.52-3.264-1.448-.866-.927-1.352-2.184-1.352-3.495h2.308c0 .655.243 1.284.676 1.747.433.464 1.02.724 1.632.724h2.307c.612 0 1.2-.26 1.632-.724a2.563 2.563 0 00.676-1.747c0-.656-.243-1.285-.676-1.748a2.233 2.233 0 00-1.632-.724h-2.307c-1.224 0-2.398-.521-3.264-1.448-.866-.927-1.352-2.184-1.352-3.496z" fill="#fff"/></svg>